<svg width="229" height="297" viewBox="0 0 229 297" fill="none" xmlns="http://www.w3.org/2000/svg">
<circle cx="148.5" cy="148.214" r="108.5" transform="rotate(30 148.5 148.214)" fill="url(#paint0_linear_1283_4779)"/>
<path fill-rule="evenodd" clip-rule="evenodd" d="M166.786 94.722L141.844 91.9511L141.775 91.9417C140.236 91.7328 136.335 91.2035 132.95 93.7844C130.776 95.4419 128.521 97.5397 127.65 98.394C127.076 98.9573 126.171 99.8517 125.637 100.765C125.385 101.195 124.96 102.044 125.09 103.081C125.255 104.395 126.168 105.194 127.043 105.564C128.844 106.326 132.523 107.32 136.038 108.269L136.286 108.336C137.502 108.665 138.709 108.991 139.853 109.307C134.864 112.021 130.34 114.491 126.763 116.46C122.413 118.855 119.296 120.598 118.568 121.089C117.927 121.52 117.436 121.523 117.071 121.444C116.617 121.345 116.262 121.088 116.146 120.969L115.912 120.731L111.708 118.319L104.073 113.94C102.536 112.96 100.787 113.37 99.9438 113.624C99.0955 113.879 98.2422 114.279 97.7523 114.51L97.7516 114.51C97.6768 114.545 97.6106 114.576 97.5541 114.602C95.4669 115.483 90.6011 117.623 88.645 118.872C88.1534 119.186 87.6773 119.631 87.3536 120.244C87.0222 120.872 86.9297 121.528 86.9861 122.124C87.0879 123.2 87.666 124.038 88.0431 124.509C88.7807 125.43 89.8016 126.194 90.0962 126.415C90.1201 126.433 90.1393 126.447 90.1531 126.458C95.0694 130.211 105.194 138.973 108.195 141.615C110.693 143.814 113.204 144.607 115.52 144.634C117.584 144.659 119.37 144.06 120.483 143.687C120.558 143.662 120.629 143.638 120.698 143.616L120.718 143.609L120.738 143.602C127.161 141.343 140.937 136.379 151.546 132.437L147.519 147.826C147.286 148.716 147.579 149.662 148.274 150.265C148.969 150.869 149.947 151.026 150.796 150.67L165.852 144.359C166.527 144.077 167.037 143.504 167.241 142.802L172.474 124.775C185.08 119.639 205.29 110.576 213.954 105.043C217.155 102.998 217.702 99.284 216.301 97.0428C214.963 94.5864 210.797 89.5914 203.512 86.0217C199.459 84.0355 194.872 83.8462 190.961 84.3008C187.031 84.7576 183.52 85.8943 181.418 86.8416L181.34 86.8766L181.265 86.917C177.147 89.1334 172.147 91.8283 166.786 94.722ZM159.31 98.7606L141.254 96.7547L141.226 96.7509C139.659 96.5399 137.589 96.3329 135.884 97.6327C133.934 99.1198 131.844 101.06 131.048 101.84C132.69 102.347 134.898 102.949 137.3 103.597L137.732 103.714L137.732 103.714C140.601 104.488 143.641 105.309 145.87 106.039C147.108 105.367 148.361 104.688 149.623 104.004C152.826 102.268 156.088 100.503 159.31 98.7606ZM183.481 91.2202C173.576 96.5514 158.612 104.626 145.808 111.579C139.389 115.065 133.516 118.267 129.096 120.7C124.595 123.178 121.765 124.77 121.271 125.103C117.744 127.478 114.438 125.905 112.975 124.625L105.842 120.534L101.718 118.168C101.634 118.181 101.508 118.207 101.337 118.258C100.864 118.4 100.408 118.613 99.9116 118.844C99.7882 118.901 99.6623 118.96 99.5331 119.019L99.5011 119.033L99.4686 119.047C97.742 119.775 94.5885 121.169 92.574 122.21C92.7392 122.346 92.8831 122.455 93.0031 122.545L93.0896 122.611C93.7865 123.143 94.5811 123.769 95.4412 124.461C100.841 128.804 108.82 135.718 111.393 137.983C113.037 139.43 114.438 139.782 115.578 139.795C116.803 139.81 117.895 139.447 119.089 139.051L119.153 139.029C126.228 136.54 142.231 130.769 153.044 126.712L155.794 116.203C155.998 115.422 156.579 114.794 157.342 114.53L173.054 109.08C173.909 108.783 174.858 108.988 175.514 109.611C176.17 110.234 176.423 111.171 176.171 112.04L174.201 118.825C186.731 113.582 203.84 105.76 211.349 100.964C211.914 100.603 212.096 100.213 212.156 99.9522C212.19 99.8053 212.188 99.6826 212.176 99.6028C212.174 99.588 212.172 99.5762 212.17 99.567L212.136 99.5175L212.076 99.4036C211.304 97.9434 207.905 93.5636 201.382 90.3674C198.482 88.9463 194.942 88.7102 191.519 89.1079C188.166 89.4977 185.175 90.4679 183.481 91.2202ZM160.148 118.679L153.441 144.314L162.915 140.343L170.219 115.185L160.148 118.679Z" fill="url(#paint1_linear_1283_4779)"/>
<circle cx="128.5" cy="43.2137" r="9.5" fill="#00C1DB"/>
<circle cx="99.5" cy="87.2139" r="4.5" fill="white"/>
<defs>
<linearGradient id="paint0_linear_1283_4779" x1="86.3442" y1="51.1635" x2="218.834" y2="248.535" gradientUnits="userSpaceOnUse">
<stop offset="0.395833" stop-color="#E9FCFF"/>
<stop offset="1" stop-color="#F7FEFF" stop-opacity="0"/>
</linearGradient>
<linearGradient id="paint1_linear_1283_4779" x1="201.966" y1="37.8405" x2="197.953" y2="191.376" gradientUnits="userSpaceOnUse">
<stop stop-color="#B2ECF4"/>
<stop offset="0.8125" stop-color="#00C1DB"/>
</linearGradient>
</defs>
</svg>
