<svg width="95" height="25" viewBox="0 0 95 25" fill="none" xmlns="http://www.w3.org/2000/svg">
<path d="M9.10604 7.39023H13.106V9.24658C13.5333 8.56887 14.0563 8.05321 14.6751 7.69962C15.2939 7.3313 16.0158 7.14713 16.8408 7.14713C16.944 7.14713 17.0545 7.14713 17.1723 7.14713C17.3049 7.14713 17.4523 7.16187 17.6143 7.19133V11.0145C17.0839 10.7493 16.5094 10.6167 15.8906 10.6167C14.9624 10.6167 14.2626 10.8967 13.7911 11.4565C13.3344 12.0016 13.106 12.8046 13.106 13.8654V18.7272H9.10604V7.39023Z" fill="#00C1DB"/>
<path d="M35.1725 13.0919C35.1725 12.7383 35.1062 12.4068 34.9736 12.0974C34.8558 11.7733 34.679 11.4934 34.4432 11.2576C34.2075 11.0219 33.9276 10.8377 33.6034 10.7051C33.2941 10.5578 32.9552 10.4842 32.5869 10.4842C32.2333 10.4842 31.9018 10.5504 31.5924 10.683C31.283 10.8156 31.0104 10.9998 30.7747 11.2355C30.5537 11.4713 30.3696 11.7512 30.2222 12.0753C30.0896 12.3847 30.0233 12.7162 30.0233 13.0698C30.0233 13.4234 30.0896 13.7549 30.2222 14.0643C30.3548 14.3737 30.539 14.6462 30.7747 14.8819C31.0104 15.1029 31.283 15.2871 31.5924 15.4344C31.9165 15.567 32.2554 15.6333 32.609 15.6333C32.9626 15.6333 33.2941 15.567 33.6034 15.4344C33.9128 15.3018 34.178 15.1177 34.399 14.8819C34.6348 14.6462 34.8189 14.3737 34.9515 14.0643C35.0988 13.7549 35.1725 13.4307 35.1725 13.0919ZM30.1338 24.3847H26.1338V7.39023H30.1338V8.6499C30.9883 7.57439 32.1523 7.03664 33.6255 7.03664C34.4359 7.03664 35.1872 7.1987 35.8797 7.52283C36.5869 7.83222 37.1983 8.25947 37.7139 8.80459C38.2296 9.34971 38.6274 9.9906 38.9073 10.7272C39.202 11.4639 39.3493 12.2521 39.3493 13.0919C39.3493 13.9317 39.202 14.7125 38.9073 15.4344C38.6274 16.1563 38.2296 16.7899 37.7139 17.335C37.213 17.8801 36.6163 18.3074 35.9239 18.6167C35.2314 18.9261 34.4801 19.0808 33.6697 19.0808C32.2554 19.0808 31.0767 18.5946 30.1338 17.6223V24.3847Z" fill="#00C1DB"/>
<path d="M57.2198 0.384705H61.2198V8.82669C61.7649 8.16371 62.3174 7.72172 62.8773 7.50073C63.4371 7.265 64.0927 7.14713 64.8441 7.14713C66.2732 7.14713 67.3487 7.54493 68.0706 8.34051C68.8073 9.12135 69.1756 10.1821 69.1756 11.5228V18.7272H65.1756V13.0035C65.1756 12.4289 65.1314 11.9648 65.043 11.6112C64.9546 11.2576 64.8073 10.9851 64.601 10.7935C64.2474 10.4842 63.8202 10.3295 63.3193 10.3295C62.6415 10.3295 62.1185 10.5357 61.7502 10.9482C61.3966 11.346 61.2198 11.9206 61.2198 12.672V18.7272H57.2198V0.384705Z" fill="#00C1DB"/>
<path d="M91.8548 10.7272V18.7272H87.8548V10.7272H86.5289V7.39023H87.8548V3.98691H91.8548V7.39023H94.1311V10.7272H91.8548Z" fill="#00C1DB"/>
<path d="M23.4004 7.39021V18.7272H19.4004V7.39021H23.4004ZM19.1352 3.03662C19.1352 2.72723 19.1941 2.43994 19.312 2.17474C19.4298 1.89482 19.5919 1.65172 19.7982 1.44546C20.0044 1.2392 20.2402 1.07714 20.5053 0.959274C20.7853 0.84141 21.0799 0.782478 21.3893 0.782478C21.6987 0.782478 21.986 0.84141 22.2512 0.959274C22.5311 1.07714 22.7742 1.2392 22.9805 1.44546C23.1867 1.65172 23.3488 1.89482 23.4667 2.17474C23.5845 2.43994 23.6435 2.72723 23.6435 3.03662C23.6435 3.34601 23.5845 3.64067 23.4667 3.9206C23.3488 4.18579 23.1867 4.42152 22.9805 4.62778C22.7742 4.83404 22.5311 4.99611 22.2512 5.11397C21.986 5.23183 21.6987 5.29077 21.3893 5.29077C21.0799 5.29077 20.7853 5.23183 20.5053 5.11397C20.2402 4.99611 20.0044 4.83404 19.7982 4.62778C19.5919 4.42152 19.4298 4.18579 19.312 3.9206C19.1941 3.64067 19.1352 3.34601 19.1352 3.03662Z" fill="#00C1DB"/>
<path d="M75.6079 13.0256C75.6079 13.3939 75.6742 13.7401 75.8068 14.0642C75.9394 14.3736 76.1162 14.6462 76.3372 14.8819C76.5729 15.1177 76.8455 15.3018 77.1549 15.4344C77.479 15.567 77.8252 15.6333 78.1935 15.6333C78.5471 15.6333 78.8786 15.567 79.188 15.4344C79.5121 15.3018 79.7847 15.1177 80.0057 14.8819C80.2414 14.6462 80.4256 14.3736 80.5582 14.0642C80.7055 13.7549 80.7792 13.4234 80.7792 13.0698C80.7792 12.7162 80.7055 12.3847 80.5582 12.0753C80.4256 11.7512 80.2414 11.4712 80.0057 11.2355C79.7847 10.9998 79.5121 10.8156 79.188 10.683C78.8786 10.5504 78.5471 10.4841 78.1935 10.4841C77.8252 10.4841 77.479 10.5504 77.1549 10.683C76.8455 10.8156 76.5729 10.9998 76.3372 11.2355C76.1162 11.4712 75.9394 11.7438 75.8068 12.0532C75.6742 12.3479 75.6079 12.672 75.6079 13.0256ZM80.6466 7.39021H84.6687V18.7272H80.6466V17.4676C79.7921 18.5431 78.6355 19.0808 77.177 19.0808C76.3519 19.0808 75.5932 18.9335 74.9007 18.6388C74.2083 18.3294 73.6042 17.9022 73.0886 17.3571C72.5729 16.8119 72.1678 16.1711 71.8731 15.4344C71.5932 14.6978 71.4532 13.8948 71.4532 13.0256C71.4532 12.2153 71.5932 11.4491 71.8731 10.7272C72.153 9.99058 72.5434 9.3497 73.0444 8.80458C73.5453 8.25946 74.142 7.8322 74.8344 7.52281C75.5269 7.19868 76.293 7.03662 77.1328 7.03662C78.5471 7.03662 79.7184 7.53018 80.6466 8.51729V7.39021Z" fill="#00C1DB"/>
<path d="M5.32597 10.7272V18.7272H1.32597V10.7272H0V7.39021H1.32597V3.98689H5.32597V7.39021H7.60221V10.7272H5.32597Z" fill="#00C1DB"/>
<path d="M54.3772 11.0587C53.6848 10.5873 52.985 10.3515 52.2778 10.3515C51.8947 10.3515 51.5338 10.4178 51.1949 10.5504C50.8708 10.683 50.5835 10.8746 50.333 11.125C50.0826 11.3607 49.8837 11.648 49.7364 11.9869C49.6038 12.311 49.5375 12.6793 49.5375 13.0919C49.5375 13.4897 49.6038 13.858 49.7364 14.1968C49.8837 14.521 50.0752 14.8083 50.3109 15.0587C50.5614 15.2944 50.8561 15.4786 51.1949 15.6112C51.5338 15.7438 51.8947 15.8101 52.2778 15.8101C53.0292 15.8101 53.729 15.5523 54.3772 15.0366V18.4399C53.3901 18.8672 52.4546 19.0808 51.5706 19.0808C50.7456 19.0808 49.9573 18.9409 49.206 18.6609C48.4693 18.381 47.8137 17.9832 47.2391 17.4676C46.6793 16.9372 46.2299 16.311 45.8911 15.5891C45.5522 14.8525 45.3828 14.0348 45.3828 13.1361C45.3828 12.2374 45.5448 11.4197 45.869 10.683C46.1931 9.93164 46.6351 9.29076 47.1949 8.76037C47.7548 8.21525 48.4178 7.79536 49.1839 7.50071C49.9647 7.19131 50.7971 7.03662 51.6811 7.03662C52.6535 7.03662 53.5522 7.24288 54.3772 7.6554V11.0587Z" fill="#00C1DB"/>
</svg>
