<svg width="44" height="44" viewBox="0 0 44 44" fill="none" xmlns="http://www.w3.org/2000/svg">
<path fill-rule="evenodd" clip-rule="evenodd" d="M22 3C30.3695 3 37.415 8.64955 39.5055 16.3306C41.4627 16.4943 43 18.1292 43 20.122V23.9268C43 25.8769 41.5277 27.4845 39.6305 27.7057C39.1513 35.4176 32.2458 42 24.3864 42C23.5956 42 22.9545 41.3612 22.9545 40.5732C22.9545 39.7852 23.5956 39.1463 24.3864 39.1463C30.6549 39.1463 36.2715 33.8538 36.7578 27.7317H36.3182H34.4091V22.0244C34.4091 15.1949 28.8533 9.65854 22 9.65854C15.1467 9.65854 9.59091 15.1949 9.59091 22.0244V27.7317H7.68182H5.13416H4.81818C2.70946 27.7317 1 26.0282 1 23.9268V20.122C1 18.1292 2.53727 16.4943 4.49451 16.3306C6.58504 8.64955 13.6305 3 22 3Z" fill="black"/>
<path d="M38 22C38 30.8366 30.8366 38 22 38C13.1634 38 6 30.8366 6 22C6 13.1634 13.1634 6 22 6C30.8366 6 38 13.1634 38 22Z" fill="#00C1DB"/>
<path d="M17 20C17 21.1046 16.1046 22 15 22C13.8954 22 13 21.1046 13 20C13 18.8954 13.8954 18 15 18C16.1046 18 17 18.8954 17 20Z" fill="black"/>
<path d="M31 20C31 21.1046 30.1046 22 29 22C27.8954 22 27 21.1046 27 20C27 18.8954 27.8954 18 29 18C30.1046 18 31 18.8954 31 20Z" fill="black"/>
<path d="M15 19.5C15 19.7761 14.7761 20 14.5 20C14.2239 20 14 19.7761 14 19.5C14 19.2239 14.2239 19 14.5 19C14.7761 19 15 19.2239 15 19.5Z" fill="white"/>
<path d="M29 19.5C29 19.7761 28.7761 20 28.5 20C28.2239 20 28 19.7761 28 19.5C28 19.2239 28.2239 19 28.5 19C28.7761 19 29 19.2239 29 19.5Z" fill="white"/>
<path d="M25 26C25 27.6569 23.6569 29 22 29C20.3431 29 19 27.6569 19 26C22 26.0001 22.75 25.9999 25 26Z" fill="black"/>
</svg>
