<svg width="40" height="40" viewBox="0 0 40 40" fill="none" xmlns="http://www.w3.org/2000/svg">
<circle cx="20" cy="20" r="20" fill="white"/>
<path fill-rule="evenodd" clip-rule="evenodd" d="M19.9998 6.18176C26.0867 6.18176 31.2107 10.2905 32.7311 15.8767C34.1545 15.9958 35.2725 17.1848 35.2725 18.6341V21.4013C35.2725 22.8195 34.2017 23.9887 32.8219 24.1496C32.4734 29.7582 27.4513 34.5454 21.7353 34.5454C21.1602 34.5454 20.694 34.0808 20.694 33.5077C20.694 32.9346 21.1602 32.47 21.7353 32.47C26.2942 32.47 30.3791 28.6209 30.7328 24.1685H30.413H29.0246V20.0177C29.0246 15.0508 24.984 11.0243 19.9998 11.0243C15.0155 11.0243 10.975 15.0508 10.975 20.0177V24.1685H9.58656H7.73371H7.50391C5.97029 24.1685 4.72705 22.9295 4.72705 21.4013V18.6341C4.72705 17.1848 5.84506 15.9958 7.26851 15.8767C8.7889 10.2905 13.9128 6.18176 19.9998 6.18176Z" fill="black"/>
<path d="M31.6365 20C31.6365 26.4266 26.4268 31.6364 20.0001 31.6364C13.5735 31.6364 8.36377 26.4266 8.36377 20C8.36377 13.5734 13.5735 8.36365 20.0001 8.36365C26.4268 8.36365 31.6365 13.5734 31.6365 20Z" fill="#00C1DB"/>
<path d="M16.3637 18.5455C16.3637 19.3488 15.7125 20 14.9091 20C14.1058 20 13.4546 19.3488 13.4546 18.5455C13.4546 17.7421 14.1058 17.0909 14.9091 17.0909C15.7125 17.0909 16.3637 17.7421 16.3637 18.5455Z" fill="black"/>
<path d="M26.5453 18.5455C26.5453 19.3488 25.8941 20 25.0908 20C24.2874 20 23.6362 19.3488 23.6362 18.5455C23.6362 17.7421 24.2874 17.0909 25.0908 17.0909C25.8941 17.0909 26.5453 17.7421 26.5453 18.5455Z" fill="black"/>
<path d="M14.9089 18.1819C14.9089 18.3827 14.7461 18.5455 14.5453 18.5455C14.3444 18.5455 14.1816 18.3827 14.1816 18.1819C14.1816 17.981 14.3444 17.8182 14.5453 17.8182C14.7461 17.8182 14.9089 17.981 14.9089 18.1819Z" fill="white"/>
<path d="M25.091 18.1819C25.091 18.3827 24.9282 18.5455 24.7274 18.5455C24.5266 18.5455 24.3638 18.3827 24.3638 18.1819C24.3638 17.981 24.5266 17.8182 24.7274 17.8182C24.9282 17.8182 25.091 17.981 25.091 18.1819Z" fill="white"/>
<path d="M22.182 22.9091C22.182 24.1141 21.2052 25.0909 20.0002 25.0909C18.7952 25.0909 17.8184 24.1141 17.8184 22.9091C20.0002 22.9091 20.5456 22.909 22.182 22.9091Z" fill="black"/>
</svg>
