<svg width="44" height="44" viewBox="0 0 44 44" fill="none" xmlns="http://www.w3.org/2000/svg">
<path fill-rule="evenodd" clip-rule="evenodd" d="M34.2722 28.7317C35.7915 26.235 36.6665 23.3031 36.6665 20.1667C36.6665 11.054 29.2792 3.66669 20.1665 3.66669C11.0538 3.66669 3.6665 11.054 3.6665 20.1667C3.6665 29.2794 11.0538 36.6667 20.1665 36.6667C23.3029 36.6667 26.2348 35.7916 28.7316 34.2724C28.8823 34.4539 29.0324 34.6351 29.1824 34.8159C30.7323 36.6858 32.255 38.5228 34.008 40.3317C35.0713 41.4289 36.6583 41.5874 37.794 40.5654C38.1963 40.2033 38.667 39.7584 39.2126 39.2128C39.7582 38.6672 40.2031 38.1965 40.5652 37.7942C41.5873 36.6585 41.4287 35.0715 40.3315 34.0082C38.5227 32.2551 36.6857 30.7325 34.8158 29.1826C34.6349 29.0326 34.4537 28.8824 34.2722 28.7317Z" fill="black"/>
<path d="M20 33C27.1797 33 33 27.1797 33 20C33 12.8203 27.1797 7 20 7C12.8203 7 7 12.8203 7 20C7 27.1797 12.8203 33 20 33Z" fill="#00C1DB"/>
<path d="M20 11.5V21L24.5 25.5" stroke="black" stroke-width="2.5" stroke-linecap="round" stroke-linejoin="round"/>
<path d="M20 11.5C20 11.7761 19.7761 12 19.5 12C19.2239 12 19 11.7761 19 11.5C19 11.2239 19.2239 11 19.5 11C19.7761 11 20 11.2239 20 11.5Z" fill="#F2F7F8"/>
</svg>
