<svg width="25" height="26" viewBox="0 0 25 26" fill="none" xmlns="http://www.w3.org/2000/svg">
<g clip-path="url(#clip0_1360_5049)">
<path d="M24.6094 13.3247C24.6094 20.0125 19.1878 25.4341 12.5 25.4341C5.81216 25.4341 0.390625 20.0125 0.390625 13.3247C0.390625 6.63687 5.81216 1.21533 12.5 1.21533C19.1878 1.21533 24.6094 6.63687 24.6094 13.3247ZM11.0993 19.7365L20.0837 10.7521C20.3888 10.4471 20.3888 9.95239 20.0837 9.64731L18.9789 8.54248C18.6738 8.23735 18.1791 8.23735 17.874 8.54248L10.5469 15.8695L7.12603 12.4487C6.82095 12.1436 6.32627 12.1436 6.02114 12.4487L4.91631 13.5535C4.61123 13.8586 4.61123 14.3533 4.91631 14.6583L9.99443 19.7365C10.2996 20.0416 10.7942 20.0416 11.0993 19.7365Z" fill="#00C1DB"/>
</g>
<defs>
<clipPath id="clip0_1360_5049">
<rect width="25" height="25" fill="white" transform="translate(0 0.824707)"/>
</clipPath>
</defs>
</svg>
