<svg width="20" height="21" viewBox="0 0 20 21" fill="none" xmlns="http://www.w3.org/2000/svg">
<path d="M19.7266 17.6776L15.832 13.7831C15.6562 13.6073 15.418 13.5096 15.168 13.5096H14.5312C15.6094 12.1307 16.25 10.3964 16.25 8.50964C16.25 4.02136 12.6133 0.384644 8.125 0.384644C3.63672 0.384644 0 4.02136 0 8.50964C0 12.9979 3.63672 16.6346 8.125 16.6346C10.0117 16.6346 11.7461 15.994 13.125 14.9159V15.5526C13.125 15.8026 13.2227 16.0409 13.3984 16.2167L17.293 20.1112C17.6602 20.4784 18.2539 20.4784 18.6172 20.1112L19.7227 19.0057C20.0898 18.6385 20.0898 18.0448 19.7266 17.6776ZM8.125 13.5096C5.36328 13.5096 3.125 11.2753 3.125 8.50964C3.125 5.74792 5.35937 3.50964 8.125 3.50964C10.8867 3.50964 13.125 5.74402 13.125 8.50964C13.125 11.2714 10.8906 13.5096 8.125 13.5096Z" fill="#A5BBC1"/>
</svg>
